<?xml version="1.0" encoding="UTF-8"?>
<svg id="Layer_1" xmlns="http://www.w3.org/2000/svg" version="1.1" xmlns:xlink="http://www.w3.org/1999/xlink" viewBox="0 0 240.89 97.33">
  <!-- Generator: Adobe Illustrator 29.8.4, SVG Export Plug-In . SVG Version: 2.1.1 Build 6)  -->
  <defs>
    <style>
      .st0 {
        fill: #f7941d;
      }

      .st1 {
        fill: none;
      }

      .st2 {
        fill: url(#radial-gradient);
      }

      .st3 {
        fill: url(#radial-gradient1);
      }

      .st4 {
        fill: #f5f4ed;
      }

      .st5 {
        fill: #f15a29;
      }

      .st6 {
        fill: url(#radial-gradient2);
      }

      .st7 {
        fill: #fbb040;
      }

      .st8 {
        clip-path: url(#clippath);
      }
    </style>
    <clipPath id="clippath">
      <circle class="st1" cx="43.87" cy="57.69" r="12.22"/>
    </clipPath>
    <radialGradient id="radial-gradient" cx="45.1" cy="61.94" fx="45.1" fy="61.94" r="18.37" gradientUnits="userSpaceOnUse">
      <stop offset="0" stop-color="#f6871f"/>
      <stop offset=".2" stop-color="#f26223"/>
      <stop offset=".41" stop-color="#f04327"/>
      <stop offset=".62" stop-color="#ee2d29"/>
      <stop offset=".82" stop-color="#ed202b"/>
      <stop offset="1" stop-color="#ed1c2c"/>
    </radialGradient>
    <radialGradient id="radial-gradient1" cx="47.65" cy="61.81" fx="47.65" fy="61.81" r="19.01" gradientUnits="userSpaceOnUse">
      <stop offset="0" stop-color="#f7941d"/>
      <stop offset="1" stop-color="#ef3e2d"/>
    </radialGradient>
    <radialGradient id="radial-gradient2" cx="48.43" cy="66.63" fx="48.43" fy="66.63" r="19.48" gradientUnits="userSpaceOnUse">
      <stop offset="0" stop-color="#ffcd03"/>
      <stop offset="1" stop-color="#f6882f"/>
    </radialGradient>
  </defs>
  <g>
    <path class="st4" d="M43.87,74.38c-4.31,0-8.37-1.62-11.51-4.61-3.31-3.16-5.14-7.42-5.16-11.99,0-.6.43-1.14,1.02-1.2.67-.06,1.23.47,1.23,1.12,0,3.98,1.58,7.68,4.46,10.43,2.88,2.75,6.65,4.16,10.64,3.97,7.36-.34,13.38-6.37,13.72-13.72.18-3.99-1.23-7.77-3.97-10.64-2.75-2.88-6.45-4.46-10.43-4.46-6.43,0-8.82-4.4-8.82-7.18,0-1.26.78-2.18,1.89-2.25l3.99-.24c.23-.01.28-.34.06-.42l-4.62-1.69c-.55-.2-.86-.8-.69-1.38.12-.41.48-.7.9-.79l5.53-1.13c.22-.04.23-.35.02-.42l-5.58-1.75c-.56-.18-.93-.74-.81-1.32.14-.66.81-1.04,1.44-.85l10.59,3.32c.57.18.91.77.75,1.37-.11.42-.48.73-.9.82l-5.99,1.22c-.21.04-.24.34-.03.41l6.23,2.29c.5.18.81.69.73,1.22-.08.53-.52.93-1.05.96l-9.84.58c-.15,0-.27.13-.27.28,0,.09,0,.16,0,.16,0,1.98,1.47,4.12,6.48,4.52,4.6,0,8.88,1.83,12.06,5.16,3.18,3.33,4.81,7.69,4.6,12.3-.39,8.51-7.36,15.48-15.87,15.87-.27.01-.53.02-.8.02Z"/>
    <path class="st7" d="M31.13,47.16c-.94,0-1.7-.76-1.7-1.7s.76-1.7,1.7-1.7,1.7.76,1.7,1.7-.76,1.7-1.7,1.7ZM31.13,44.89c-.32,0-.57.26-.57.57s.26.57.57.57.57-.26.57-.57-.26-.57-.57-.57Z"/>
    <path class="st7" d="M38.87,48.83c-.62,0-1.13-.51-1.13-1.13s.51-1.13,1.13-1.13,1.13.51,1.13,1.13-.51,1.13-1.13,1.13ZM38.87,47.32c-.21,0-.38.17-.38.38s.17.38.38.38.38-.17.38-.38-.17-.38-.38-.38Z"/>
    <path class="st5" d="M41.71,56.67c-1.88,0-3.41-1.53-3.41-3.41s1.53-3.41,3.41-3.41,3.41,1.53,3.41,3.41-1.53,3.41-3.41,3.41ZM41.71,51.12c-1.18,0-2.14.96-2.14,2.14s.96,2.14,2.14,2.14,2.14-.96,2.14-2.14-.96-2.14-2.14-2.14Z"/>
    <path class="st0" d="M34.03,53.02c-1.44,0-2.6-1.17-2.6-2.6s1.17-2.6,2.6-2.6,2.6,1.17,2.6,2.6-1.17,2.6-2.6,2.6ZM34.03,48.94c-.81,0-1.48.66-1.48,1.48s.66,1.48,1.48,1.48,1.48-.66,1.48-1.48-.66-1.48-1.48-1.48Z"/>
    <g class="st8">
      <path class="st2" d="M69.59,70.61c-16.33-9.44-32.65,3.95-48.98-5.48.48-1.85.95-3.69,1.43-5.54,15.37,5.44,30.75-10.61,46.12-5.16l1.43,16.19Z"/>
      <path class="st3" d="M60.35,73.39c-1.67-3.36-6.2-4.47-9.41-5.11-3.44-.58-5.56-.69-7.89-.58-2.07,0-4.33.23-6.62-.32-2.43-.46-4.87-1.7-10.66-2.69-1.02-1.31-1.71-2.52-2.38-3.6,12.3-.29,16.56,1.17,24-2.66,6.75-2.83,16.68-10.94,24.52-7.28-4.12,8.56-7.81,15.35-11.57,22.23Z"/>
      <path class="st6" d="M62.58,70.44c-4.84-1.62-13.46-1.54-18.46-.16-5.86,1.08-8.1,3.47-20.27-.47-1.12-2.4-1.78-4.85-2.45-7.25,14.96,2.25,21.17.59,27.98-.4,3.45-.53,7.26-.96,11.94-.91,4.57.06,10,.6,14.14,2.13-4.43,1.86-8.61,3.74-12.87,7.06Z"/>
    </g>
  </g>
  <g>
    <g>
      <path class="st4" d="M69.86,42.07h6.19v5.01h-6.19v-5.01ZM69.86,49.77h6.19v19.44h-6.19v-19.44Z"/>
      <path class="st4" d="M78.14,59.49c0-6.07,3.49-10.29,8.5-10.29,2.73,0,4.29,1.14,5.43,2.77h.11v-9.91h6.19v27.14h-5.92v-2.62h-.08c-1.18,2.01-3.19,3.23-5.73,3.23-4.97,0-8.5-3.83-8.5-10.32ZM92.34,59.49c0-3.26-1.33-5.62-4.02-5.62-2.47,0-3.91,2.28-3.91,5.54s1.44,5.5,3.83,5.5c2.58,0,4.1-2.24,4.1-5.43Z"/>
      <path class="st4" d="M100.46,59.45c0-5.81,4.06-10.25,9.98-10.25,2.77,0,4.97.91,6.64,2.43,2.32,2.13,3.45,5.5,3.42,9.45h-13.97c.38,2.62,1.82,4.25,4.36,4.25,1.63,0,2.7-.72,3.23-1.94h6.04c-.42,1.75-1.56,3.42-3.27,4.59-1.63,1.14-3.61,1.78-6.07,1.78-6.42,0-10.36-4.44-10.36-10.32ZM114.24,57.4c-.23-2.32-1.67-3.8-3.68-3.8-2.35,0-3.57,1.48-3.99,3.8h7.67Z"/>
      <path class="st4" d="M121.72,59.45c0-5.81,4.06-10.25,9.98-10.25,2.77,0,4.97.91,6.64,2.43,2.32,2.13,3.45,5.5,3.42,9.45h-13.97c.38,2.62,1.82,4.25,4.36,4.25,1.63,0,2.7-.72,3.23-1.94h6.04c-.42,1.75-1.56,3.42-3.27,4.59-1.63,1.14-3.61,1.78-6.07,1.78-6.42,0-10.36-4.44-10.36-10.32ZM135.5,57.4c-.23-2.32-1.67-3.8-3.68-3.8-2.35,0-3.57,1.48-3.99,3.8h7.67Z"/>
      <path class="st4" d="M142.95,63.78c0-4.29,3.42-5.58,7.44-6.11,3.64-.46,4.94-.83,4.94-2.16,0-1.25-.8-2.09-2.66-2.09-1.97,0-2.96.87-3.15,2.51h-5.69c.15-3.61,2.92-6.68,8.81-6.68,2.92,0,4.9.53,6.3,1.59,1.67,1.22,2.47,3.11,2.47,5.54v9.79c0,1.56.15,2.43.68,2.77v.27h-6c-.3-.42-.49-1.18-.64-2.16h-.08c-1.14,1.63-2.85,2.66-5.77,2.66-3.87,0-6.64-2.09-6.64-5.92ZM155.47,62.26v-2.32c-.8.42-1.94.72-3.19,1.03-2.39.53-3.38,1.14-3.38,2.62,0,1.56,1.14,2.16,2.66,2.16,2.32,0,3.91-1.4,3.91-3.49Z"/>
    </g>
    <g>
      <path class="st5" d="M169.43,42.07h6.26v27.14h-6.26v-27.14Z"/>
      <path class="st5" d="M177.78,63.78c0-4.29,3.42-5.58,7.44-6.11,3.64-.46,4.94-.83,4.94-2.16,0-1.25-.8-2.09-2.66-2.09-1.97,0-2.96.87-3.15,2.51h-5.69c.15-3.61,2.92-6.68,8.81-6.68,2.92,0,4.9.53,6.3,1.59,1.67,1.22,2.47,3.11,2.47,5.54v9.79c0,1.56.15,2.43.68,2.77v.27h-6c-.3-.42-.49-1.18-.64-2.16h-.08c-1.14,1.63-2.85,2.66-5.77,2.66-3.87,0-6.64-2.09-6.64-5.92ZM190.31,62.26v-2.32c-.8.42-1.94.72-3.19,1.03-2.39.53-3.38,1.14-3.38,2.62,0,1.56,1.14,2.16,2.66,2.16,2.32,0,3.91-1.4,3.91-3.49Z"/>
      <path class="st5" d="M205.23,66.74h-.08v2.47h-5.92v-27.14h6.19v9.91h.11c1.22-1.67,2.89-2.77,5.54-2.77,5.05,0,8.31,4.44,8.31,10.29,0,6.45-3.26,10.32-8.28,10.32-2.58,0-4.67-1.06-5.88-3.07ZM213.12,59.45c0-3.34-1.33-5.54-3.83-5.54-2.73,0-4.06,2.39-4.06,5.58s1.59,5.43,4.14,5.43,3.76-2.09,3.76-5.47Z"/>
    </g>
  </g>
</svg>