<svg width="354" height="15" viewBox="0 0 354 15" fill="none" xmlns="http://www.w3.org/2000/svg">
<path d="M-0.000107378 14.52V0.320019H3.17989C4.43323 0.320019 5.51989 0.600019 6.43989 1.16002C7.35989 1.70669 8.06656 2.51335 8.55989 3.58002C9.06656 4.63335 9.31989 5.92002 9.31989 7.44002C9.31989 8.96002 9.06656 10.2467 8.55989 11.3C8.06656 12.3534 7.35989 13.1534 6.43989 13.7C5.51989 14.2467 4.43323 14.52 3.17989 14.52H-0.000107378ZM1.35989 13.2H3.07989C4.61323 13.2 5.79323 12.7134 6.61989 11.74C7.45989 10.7667 7.87989 9.33335 7.87989 7.44002C7.87989 5.53335 7.45989 4.09335 6.61989 3.12002C5.79323 2.13335 4.61323 1.64002 3.07989 1.64002H1.35989V13.2ZM19.1321 14.84C18.0387 14.84 17.1054 14.5534 16.3321 13.98C15.5587 13.3934 14.9654 12.5467 14.5521 11.44C14.1521 10.3334 13.9521 9.00002 13.9521 7.44002C13.9521 5.86669 14.1521 4.52669 14.5521 3.42002C14.9654 2.31335 15.5587 1.46669 16.3321 0.880019C17.1054 0.293352 18.0387 1.93119e-05 19.1321 1.93119e-05C20.2254 1.93119e-05 21.1587 0.293352 21.9321 0.880019C22.7054 1.46669 23.2921 2.31335 23.6921 3.42002C24.1054 4.52669 24.3121 5.86669 24.3121 7.44002C24.3121 9.00002 24.1054 10.3334 23.6921 11.44C23.2921 12.5467 22.7054 13.3934 21.9321 13.98C21.1587 14.5534 20.2254 14.84 19.1321 14.84ZM19.1321 13.5C19.9321 13.5 20.6121 13.2667 21.1721 12.8C21.7321 12.3334 22.1521 11.6467 22.4321 10.74C22.7254 9.83335 22.8721 8.73335 22.8721 7.44002C22.8721 6.14669 22.7254 5.04669 22.4321 4.14002C22.1521 3.22002 21.7321 2.52669 21.1721 2.06002C20.6121 1.58002 19.9321 1.34002 19.1321 1.34002C18.3321 1.34002 17.6521 1.58002 17.0921 2.06002C16.5321 2.52669 16.1054 3.22002 15.8121 4.14002C15.5321 5.04669 15.3921 6.14669 15.3921 7.44002C15.3921 8.73335 15.5321 9.83335 15.8121 10.74C16.1054 11.6467 16.5321 12.3334 17.0921 12.8C17.6521 13.2667 18.3321 13.5 19.1321 13.5ZM29.5843 14.52V0.320019H31.5243L37.3043 13.02V0.320019H38.6643V14.52H36.7243L30.9443 1.82002V14.52H29.5843ZM48.0565 5.40002L48.9565 2.48002H47.9365V0.320019H50.0565V2.24002L48.8965 5.40002H48.0565ZM63.4286 14.52V1.64002H58.9086V0.320019H69.3086V1.64002H64.7886V14.52H63.4286ZM90.153 14.52V0.320019H91.513V13.86L90.893 13.2H98.833V14.52H90.153ZM104.945 14.52V0.320019H113.465V1.64002H106.305V6.76002H113.225V8.06002H106.305V13.2H113.625V14.52H104.945ZM123.397 14.52V1.64002H118.877V0.320019H129.277V1.64002H124.757V14.52H123.397ZM153.402 14.52V8.72002L148.922 0.320019H150.482L154.062 7.32002L157.642 0.320019H159.202L154.762 8.72002V14.52H153.402ZM169.054 14.84C167.961 14.84 167.027 14.5534 166.254 13.98C165.481 13.3934 164.887 12.5467 164.474 11.44C164.074 10.3334 163.874 9.00002 163.874 7.44002C163.874 5.86669 164.074 4.52669 164.474 3.42002C164.887 2.31335 165.481 1.46669 166.254 0.880019C167.027 0.293352 167.961 1.93119e-05 169.054 1.93119e-05C170.147 1.93119e-05 171.081 0.293352 171.854 0.880019C172.627 1.46669 173.214 2.31335 173.614 3.42002C174.027 4.52669 174.234 5.86669 174.234 7.44002C174.234 9.00002 174.027 10.3334 173.614 11.44C173.214 12.5467 172.627 13.3934 171.854 13.98C171.081 14.5534 170.147 14.84 169.054 14.84ZM169.054 13.5C169.854 13.5 170.534 13.2667 171.094 12.8C171.654 12.3334 172.074 11.6467 172.354 10.74C172.647 9.83335 172.794 8.73335 172.794 7.44002C172.794 6.14669 172.647 5.04669 172.354 4.14002C172.074 3.22002 171.654 2.52669 171.094 2.06002C170.534 1.58002 169.854 1.34002 169.054 1.34002C168.254 1.34002 167.574 1.58002 167.014 2.06002C166.454 2.52669 166.027 3.22002 165.734 4.14002C165.454 5.04669 165.314 6.14669 165.314 7.44002C165.314 8.73335 165.454 9.83335 165.734 10.74C166.027 11.6467 166.454 12.3334 167.014 12.8C167.574 13.2667 168.254 13.5 169.054 13.5ZM184.046 14.84C182.579 14.84 181.433 14.3734 180.606 13.44C179.793 12.5067 179.386 11.2134 179.386 9.56002V0.320019H180.746V9.56002C180.746 10.84 181.026 11.82 181.586 12.5C182.159 13.1667 182.979 13.5 184.046 13.5C185.113 13.5 185.926 13.1667 186.486 12.5C187.059 11.82 187.346 10.84 187.346 9.56002V0.320019H188.706V9.56002C188.706 11.2134 188.293 12.5067 187.466 13.44C186.653 14.3734 185.513 14.84 184.046 14.84ZM194.538 14.52V0.320019H198.818C200.258 0.320019 201.398 0.686685 202.238 1.42002C203.078 2.15335 203.498 3.17335 203.498 4.48002C203.498 5.17335 203.352 5.78002 203.058 6.30002C202.765 6.80669 202.372 7.21335 201.878 7.52002C201.398 7.81335 200.872 7.99335 200.298 8.06002L200.218 7.82002C201.125 7.86002 201.832 8.08002 202.338 8.48002C202.858 8.88002 203.158 9.52669 203.238 10.42L203.578 14.52H202.218L201.898 10.6C201.858 10.16 201.745 9.79335 201.558 9.50002C201.385 9.20669 201.105 8.99335 200.718 8.86002C200.345 8.71335 199.838 8.64002 199.198 8.64002H195.898V14.52H194.538ZM195.898 7.32002H198.798C199.852 7.32002 200.658 7.08002 201.218 6.60002C201.792 6.10669 202.078 5.40002 202.078 4.48002C202.078 3.54669 201.792 2.84002 201.218 2.36002C200.658 1.86669 199.852 1.62002 198.798 1.62002H195.898V7.32002ZM224.683 14.52V13.2H228.343V1.64002H224.683V0.320019H233.363V1.64002H229.703V13.2H233.363V14.52H224.683ZM239.875 14.52V0.320019H243.055C244.308 0.320019 245.395 0.600019 246.315 1.16002C247.235 1.70669 247.942 2.51335 248.435 3.58002C248.942 4.63335 249.195 5.92002 249.195 7.44002C249.195 8.96002 248.942 10.2467 248.435 11.3C247.942 12.3534 247.235 13.1534 246.315 13.7C245.395 14.2467 244.308 14.52 243.055 14.52H239.875ZM241.235 13.2H242.955C244.488 13.2 245.668 12.7134 246.495 11.74C247.335 10.7667 247.755 9.33335 247.755 7.44002C247.755 5.53335 247.335 4.09335 246.495 3.12002C245.668 2.13335 244.488 1.64002 242.955 1.64002H241.235V13.2ZM254.867 14.52V0.320019H263.387V1.64002H256.227V6.76002H263.147V8.06002H256.227V13.2H263.547V14.52H254.867ZM268.659 14.52L273.099 0.320019H274.899L279.339 14.52H277.879L273.999 1.58002L270.119 14.52H268.659ZM270.779 10.26L271.239 8.94002H276.759L277.219 10.26H270.779ZM289.191 14.84C288.218 14.84 287.345 14.6334 286.571 14.22C285.811 13.8067 285.198 13.24 284.731 12.52C284.278 11.7867 284.025 10.96 283.971 10.04L285.391 9.94002C285.445 10.6467 285.638 11.2734 285.971 11.82C286.318 12.3534 286.765 12.7667 287.311 13.06C287.871 13.3534 288.511 13.5 289.231 13.5C289.925 13.5 290.518 13.4067 291.011 13.22C291.518 13.02 291.905 12.7334 292.171 12.36C292.451 11.9867 292.591 11.54 292.591 11.02C292.591 10.54 292.478 10.12 292.251 9.76002C292.038 9.38669 291.638 9.04669 291.051 8.74002C290.465 8.42002 289.598 8.10669 288.451 7.80002C287.478 7.53335 286.685 7.24002 286.071 6.92002C285.458 6.58669 285.005 6.18669 284.711 5.72002C284.431 5.24002 284.291 4.64002 284.291 3.92002C284.291 3.16002 284.478 2.48669 284.851 1.90002C285.225 1.31335 285.751 0.853352 286.431 0.520019C287.125 0.173352 287.951 1.93119e-05 288.911 1.93119e-05C289.885 1.93119e-05 290.718 0.206686 291.411 0.620018C292.105 1.02002 292.645 1.56002 293.031 2.24002C293.418 2.90669 293.645 3.64669 293.711 4.46002L292.291 4.56002C292.238 3.96002 292.071 3.41335 291.791 2.92002C291.525 2.42669 291.145 2.04002 290.651 1.76002C290.171 1.48002 289.578 1.34002 288.871 1.34002C287.898 1.34002 287.125 1.57335 286.551 2.04002C285.991 2.50669 285.711 3.12002 285.711 3.88002C285.711 4.36002 285.811 4.76002 286.011 5.08002C286.225 5.40002 286.585 5.68002 287.091 5.92002C287.611 6.14669 288.331 6.38669 289.251 6.64002C290.451 6.97335 291.398 7.34002 292.091 7.74002C292.798 8.12669 293.291 8.59335 293.571 9.14002C293.865 9.67335 294.011 10.3134 294.011 11.06C294.011 11.82 293.805 12.4867 293.391 13.06C292.978 13.62 292.405 14.06 291.671 14.38C290.951 14.6867 290.125 14.84 289.191 14.84Z" fill="#D4D4D4"/>
<path d="M314.836 14.52V0.320019H318.016C319.269 0.320019 320.356 0.600019 321.276 1.16002C322.196 1.70669 322.902 2.51335 323.396 3.58002C323.902 4.63335 324.156 5.92002 324.156 7.44002C324.156 8.96002 323.902 10.2467 323.396 11.3C322.902 12.3534 322.196 13.1534 321.276 13.7C320.356 14.2467 319.269 14.52 318.016 14.52H314.836ZM316.196 13.2H317.916C319.449 13.2 320.629 12.7134 321.456 11.74C322.296 10.7667 322.716 9.33335 322.716 7.44002C322.716 5.53335 322.296 4.09335 321.456 3.12002C320.629 2.13335 319.449 1.64002 317.916 1.64002H316.196V13.2ZM329.628 14.52V13.2H333.288V1.64002H329.628V0.320019H338.308V1.64002H334.648V13.2H338.308V14.52H329.628ZM344.82 14.52V0.320019H353.34V1.64002H346.18V6.76002H353.1V8.06002H346.18V13.2H353.5V14.52H344.82Z" fill="#E32B1A"/>
</svg>
