<svg width="130" height="15" viewBox="0 0 130 15" fill="none" xmlns="http://www.w3.org/2000/svg">
<path d="M8.79765e-05 14.2002V12.8802H3.66009V1.32019H8.79765e-05V0.00019455H8.68009V1.32019H5.02009V12.8802H8.68009V14.2002H8.79765e-05ZM15.1923 14.2002V0.00019455H18.3723C19.6256 0.00019455 20.7123 0.280195 21.6323 0.840194C22.5523 1.38686 23.2589 2.19353 23.7523 3.26019C24.2589 4.31353 24.5123 5.60019 24.5123 7.1202C24.5123 8.6402 24.2589 9.92686 23.7523 10.9802C23.2589 12.0335 22.5523 12.8335 21.6323 13.3802C20.7123 13.9269 19.6256 14.2002 18.3723 14.2002H15.1923ZM16.5523 12.8802H18.2723C19.8056 12.8802 20.9856 12.3935 21.8123 11.4202C22.6523 10.4469 23.0723 9.01353 23.0723 7.1202C23.0723 5.21353 22.6523 3.77353 21.8123 2.80019C20.9856 1.81353 19.8056 1.32019 18.2723 1.32019H16.5523V12.8802ZM30.1845 14.2002V0.00019455H38.7045V1.32019H31.5445V6.4402H38.4645V7.7402H31.5445V12.8802H38.8645V14.2002H30.1845ZM43.9767 14.2002L48.4167 0.00019455H50.2167L54.6567 14.2002H53.1967L49.3167 1.2602L45.4367 14.2002H43.9767ZM46.0967 9.9402L46.5567 8.6202H52.0767L52.5367 9.9402H46.0967Z" fill="#D4D4D4"/>
<path d="M75.361 14.2002V0.00019455H84.041V1.30019H76.101L76.721 0.680194V7.3202L76.101 6.56019H83.681V7.8602H76.101L76.721 7.20019V14.2002H75.361ZM94.2932 14.5202C92.8265 14.5202 91.6799 14.0535 90.8532 13.1202C90.0399 12.1869 89.6332 10.8935 89.6332 9.2402V0.00019455H90.9932V9.2402C90.9932 10.5202 91.2732 11.5002 91.8332 12.1802C92.4065 12.8469 93.2265 13.1802 94.2932 13.1802C95.3599 13.1802 96.1732 12.8469 96.7332 12.1802C97.3065 11.5002 97.5932 10.5202 97.5932 9.2402V0.00019455H98.9532V9.2402C98.9532 10.8935 98.5399 12.1869 97.7132 13.1202C96.8999 14.0535 95.7599 14.5202 94.2932 14.5202ZM105.145 14.2002V0.00019455H113.665V1.32019H106.505V6.4402H113.425V7.7402H106.505V12.8802H113.825V14.2002H105.145ZM120.338 14.2002V0.00019455H121.698V13.5402L121.078 12.8802H129.018V14.2002H120.338Z" fill="#E22A19"/>
</svg>
