<svg width="553" height="98" viewBox="0 0 553 98" fill="none" xmlns="http://www.w3.org/2000/svg">
<g opacity="0.7">
<rect y="46" width="1" height="6" fill="#E13121"/>
<rect x="1" width="1" height="98" fill="#E13121"/>
<rect x="2" y="28" width="1" height="42" fill="#E13121"/>
<rect x="3" y="25" width="1" height="48" fill="#E13121"/>
<rect x="4" y="42" width="1" height="14" fill="#E13121"/>
<rect x="5" y="46" width="1" height="6" fill="#E13121"/>
<rect x="6" y="47" width="1" height="4" fill="#E13121"/>
<rect x="7" y="46" width="1" height="6" fill="#E13121"/>
<rect x="8" y="45" width="1" height="8" fill="#E13121"/>
<rect x="9" y="47" width="1" height="4" fill="#E13121"/>
<rect x="10" y="23" width="1" height="52" fill="#E13121"/>
<rect x="11" y="42" width="1" height="14" fill="#E13121"/>
<rect x="12" y="47" width="1" height="4" fill="#E13121"/>
<rect x="13" y="46" width="1" height="6" fill="#E13121"/>
<rect x="14" y="44" width="1" height="10" fill="#E13121"/>
<rect x="15" y="43" width="1" height="12" fill="#E13121"/>
<rect x="16" y="47" width="1" height="4" fill="#E13121"/>
<rect x="17" y="47" width="1" height="4" fill="#E13121"/>
<rect x="18" y="47" width="1" height="4" fill="#E13121"/>
<rect x="19" y="29" width="1" height="40" fill="#E13121"/>
<rect x="20" y="34" width="1" height="30" fill="#E13121"/>
<rect x="21" y="35" width="1" height="28" fill="#E13121"/>
<rect x="22" y="34" width="1" height="30" fill="#E13121"/>
<rect x="24" y="31" width="1" height="36" fill="#E13121"/>
<rect x="25" y="31" width="1" height="36" fill="#E13121"/>
<rect x="26" y="16" width="1" height="66" fill="#E13121"/>
<rect x="27" y="26" width="1" height="46" fill="#E13121"/>
<rect x="28" y="31" width="1" height="36" fill="#E13121"/>
<rect x="29" y="23" width="1" height="52" fill="#E13121"/>
<rect x="30" y="39" width="1" height="20" fill="#E13121"/>
<rect x="31" y="35" width="1" height="28" fill="#E13121"/>
<rect x="32" y="39" width="1" height="20" fill="#E13121"/>
<rect x="33" y="30" width="1" height="38" fill="#E13121"/>
<rect x="34" y="18" width="1" height="62" fill="#E13121"/>
<rect x="35" y="28" width="1" height="42" fill="#E13121"/>
<rect x="36" y="33" width="1" height="32" fill="#E13121"/>
<rect x="37" y="30" width="1" height="38" fill="#E13121"/>
<rect x="38" y="37" width="1" height="24" fill="#E13121"/>
<rect x="39" y="16" width="1" height="66" fill="#E13121"/>
<rect x="40" y="29" width="1" height="40" fill="#E13121"/>
<rect x="41" y="21" width="1" height="56" fill="#E13121"/>
<rect x="42" y="36" width="1" height="26" fill="#E13121"/>
<rect x="43" y="20" width="1" height="58" fill="#E13121"/>
<rect x="44" y="28" width="1" height="42" fill="#E13121"/>
<rect x="45" y="38" width="1" height="22" fill="#E13121"/>
<rect x="46" y="37" width="1" height="24" fill="#E13121"/>
<rect x="47" y="22" width="1" height="54" fill="#E13121"/>
<rect x="48" y="35" width="1" height="28" fill="#E13121"/>
<rect x="49" y="16" width="1" height="66" fill="#E13121"/>
<rect x="50" y="42" width="1" height="14" fill="#E13121"/>
<rect x="51" y="32" width="1" height="34" fill="#E13121"/>
<rect x="52" y="19" width="1" height="60" fill="#E13121"/>
<rect x="53" y="27" width="1" height="44" fill="#E13121"/>
<rect x="54" y="32" width="1" height="34" fill="#E13121"/>
<rect x="55" y="21" width="1" height="56" fill="#E13121"/>
<rect x="56" y="33" width="1" height="32" fill="#E13121"/>
<rect x="57" y="12" width="1" height="74" fill="#E13121"/>
<rect x="58" y="26" width="1" height="46" fill="#E13121"/>
<rect x="59" y="18" width="1" height="62" fill="#E13121"/>
<rect x="60" y="19" width="1" height="60" fill="#E13121"/>
<rect x="61" y="17" width="1" height="64" fill="#E13121"/>
<rect x="62" y="30" width="1" height="38" fill="#E13121"/>
<rect x="63" y="20" width="1" height="58" fill="#E13121"/>
<rect x="64" y="28" width="1" height="42" fill="#E13121"/>
<rect x="65" y="22" width="1" height="54" fill="#E13121"/>
<rect x="66" y="33" width="1" height="32" fill="#E13121"/>
<rect x="67" y="41" width="1" height="16" fill="#E13121"/>
<rect x="68" y="36" width="1" height="26" fill="#E13121"/>
<rect x="70" y="16" width="1" height="66" fill="#E13121"/>
<rect x="71" y="27" width="1" height="44" fill="#E13121"/>
<rect x="72" y="33" width="1" height="32" fill="#E13121"/>
<rect x="73" y="20" width="1" height="58" fill="#E13121"/>
<rect x="74" y="18" width="1" height="62" fill="#E13121"/>
<rect x="75" y="28" width="1" height="42" fill="#E13121"/>
<rect x="76" y="36" width="1" height="26" fill="#E13121"/>
<rect x="77" y="34" width="1" height="30" fill="#E13121"/>
<rect x="78" y="18" width="1" height="62" fill="#E13121"/>
<rect x="79" y="35" width="1" height="28" fill="#E13121"/>
<rect x="80" y="36" width="1" height="26" fill="#E13121"/>
<rect x="81" y="32" width="1" height="34" fill="#E13121"/>
<rect x="82" y="37" width="1" height="24" fill="#E13121"/>
<rect x="83" y="17" width="1" height="64" fill="#E13121"/>
<rect x="84" y="23" width="1" height="52" fill="#E13121"/>
<rect x="85" y="22" width="1" height="54" fill="#E13121"/>
<rect x="86" y="23" width="1" height="52" fill="#E13121"/>
<rect x="87" y="15" width="1" height="68" fill="#E13121"/>
<rect x="88" y="16" width="1" height="66" fill="#E13121"/>
<rect x="89" y="21" width="1" height="56" fill="#E13121"/>
<rect x="90" y="43" width="1" height="12" fill="#E13121"/>
<rect x="91" y="43" width="1" height="12" fill="#E13121"/>
<rect x="92" y="19" width="1" height="60" fill="#E13121"/>
<rect x="93" y="26" width="1" height="46" fill="#E13121"/>
<rect x="94" y="28" width="1" height="42" fill="#E13121"/>
<rect x="95" y="14" width="1" height="70" fill="#E13121"/>
<rect x="96" y="31" width="1" height="36" fill="#E13121"/>
<rect x="97" y="34" width="1" height="30" fill="#E13121"/>
<rect x="98" y="14" width="1" height="70" fill="#E13121"/>
<rect x="99" y="27" width="1" height="44" fill="#E13121"/>
<rect x="100" y="25" width="1" height="48" fill="#E13121"/>
<rect x="101" y="21" width="1" height="56" fill="#E13121"/>
<rect x="102" y="20" width="1" height="58" fill="#E13121"/>
<rect x="103" y="37" width="1" height="24" fill="#E13121"/>
<rect x="104" y="37" width="1" height="24" fill="#E13121"/>
<rect x="105" y="13" width="1" height="72" fill="#E13121"/>
<rect x="106" y="24" width="1" height="50" fill="#E13121"/>
<rect x="107" y="23" width="1" height="52" fill="#E13121"/>
<rect x="108" y="19" width="1" height="60" fill="#E13121"/>
<rect x="109" y="28" width="1" height="42" fill="#E13121"/>
<rect x="110" y="18" width="1" height="62" fill="#E13121"/>
<rect x="111" y="22" width="1" height="54" fill="#E13121"/>
<rect x="112" y="21" width="1" height="56" fill="#E13121"/>
<rect x="113" y="25" width="1" height="48" fill="#E13121"/>
<rect x="114" y="27" width="1" height="44" fill="#E13121"/>
<rect x="116" y="24" width="1" height="50" fill="#E13121"/>
<rect x="117" y="35" width="1" height="28" fill="#E13121"/>
<rect x="118" y="18" width="1" height="62" fill="#E13121"/>
<rect x="119" y="39" width="1" height="20" fill="#E13121"/>
<rect x="120" y="31" width="1" height="36" fill="#E13121"/>
<rect x="121" y="33" width="1" height="32" fill="#E13121"/>
<rect x="122" y="11" width="1" height="76" fill="#E13121"/>
<rect x="123" y="8" width="1" height="82" fill="#E13121"/>
<rect x="124" y="27" width="1" height="44" fill="#E13121"/>
<rect x="125" y="30" width="1" height="38" fill="#E13121"/>
<rect x="126" y="37" width="1" height="24" fill="#E13121"/>
<rect x="127" y="39" width="1" height="20" fill="#E13121"/>
<rect x="128" y="31" width="1" height="36" fill="#E13121"/>
<rect x="129" y="29" width="1" height="40" fill="#E13121"/>
<rect x="130" y="17" width="1" height="64" fill="#E13121"/>
<rect x="131" y="21" width="1" height="56" fill="#E13121"/>
<rect x="132" y="35" width="1" height="28" fill="#E13121"/>
<rect x="133" y="36" width="1" height="26" fill="#E13121"/>
<rect x="134" y="24" width="1" height="50" fill="#E13121"/>
<rect x="135" y="39" width="1" height="20" fill="#E13121"/>
<rect x="136" y="39" width="1" height="20" fill="#E13121"/>
<rect x="137" y="29" width="1" height="40" fill="#E13121"/>
<rect x="138" y="29" width="1" height="40" fill="#E13121"/>
<rect x="139" y="16" width="1" height="66" fill="#E13121"/>
<rect x="140" y="28" width="1" height="42" fill="#E13121"/>
<rect x="141" y="31" width="1" height="36" fill="#E13121"/>
<rect x="142" y="25" width="1" height="48" fill="#E13121"/>
<rect x="143" y="37" width="1" height="24" fill="#E13121"/>
<rect x="144" y="36" width="1" height="26" fill="#E13121"/>
<rect x="145" y="36" width="1" height="26" fill="#E13121"/>
<rect x="146" y="37" width="1" height="24" fill="#E13121"/>
<rect x="147" y="29" width="1" height="40" fill="#E13121"/>
<rect x="148" y="30" width="1" height="38" fill="#E13121"/>
<rect x="149" y="26" width="1" height="46" fill="#E13121"/>
<rect x="150" y="28" width="1" height="42" fill="#E13121"/>
<rect x="151" y="34" width="1" height="30" fill="#E13121"/>
<rect x="152" y="31" width="1" height="36" fill="#E13121"/>
<rect x="153" y="26" width="1" height="46" fill="#E13121"/>
<rect x="154" y="32" width="1" height="34" fill="#E13121"/>
<rect x="155" y="23" width="1" height="52" fill="#E13121"/>
<rect x="156" y="36" width="1" height="26" fill="#E13121"/>
<rect x="157" y="32" width="1" height="34" fill="#E13121"/>
<rect x="158" y="32" width="1" height="34" fill="#E13121"/>
<rect x="159" y="31" width="1" height="36" fill="#E13121"/>
<rect x="160" y="31" width="1" height="36" fill="#E13121"/>
<rect x="162" y="44" width="1" height="10" fill="#E13121"/>
<rect x="163" y="37" width="1" height="24" fill="#E13121"/>
<rect x="164" y="34" width="1" height="30" fill="#E13121"/>
<rect x="165" y="38" width="1" height="22" fill="#E13121"/>
<rect x="166" y="19" width="1" height="60" fill="#E13121"/>
<rect x="167" y="41" width="1" height="16" fill="#E13121"/>
<rect x="168" y="34" width="1" height="30" fill="#E13121"/>
<rect x="169" y="30" width="1" height="38" fill="#E13121"/>
<rect x="170" y="27" width="1" height="44" fill="#E13121"/>
<rect x="171" y="20" width="1" height="58" fill="#E13121"/>
<rect x="172" y="34" width="1" height="30" fill="#E13121"/>
<rect x="173" y="32" width="1" height="34" fill="#E13121"/>
<rect x="174" y="30" width="1" height="38" fill="#E13121"/>
<rect x="175" y="35" width="1" height="28" fill="#E13121"/>
<rect x="176" y="32" width="1" height="34" fill="#E13121"/>
<rect x="177" y="38" width="1" height="22" fill="#E13121"/>
<rect x="178" y="41" width="1" height="16" fill="#E13121"/>
<rect x="179" y="36" width="1" height="26" fill="#E13121"/>
<rect x="180" y="38" width="1" height="22" fill="#E13121"/>
<rect x="181" y="37" width="1" height="24" fill="#E13121"/>
<rect x="182" y="26" width="1" height="46" fill="#E13121"/>
<rect x="183" y="39" width="1" height="20" fill="#E13121"/>
<rect x="184" y="39" width="1" height="20" fill="#E13121"/>
<rect x="185" y="37" width="1" height="24" fill="#E13121"/>
<rect x="186" y="38" width="1" height="22" fill="#E13121"/>
<rect x="187" y="38" width="1" height="22" fill="#E13121"/>
<rect x="188" y="39" width="1" height="20" fill="#E13121"/>
<rect x="189" y="32" width="1" height="34" fill="#E13121"/>
<rect x="190" y="35" width="1" height="28" fill="#E13121"/>
<rect x="191" y="32" width="1" height="34" fill="#E13121"/>
<rect x="192" y="30" width="1" height="38" fill="#E13121"/>
<rect x="193" y="46" width="1" height="6" fill="#E13121"/>
<rect x="194" y="47" width="1" height="4" fill="#E13121"/>
<rect x="195" y="27" width="1" height="44" fill="#E13121"/>
<rect x="196" y="39" width="1" height="20" fill="#E13121"/>
<rect x="197" y="21" width="1" height="56" fill="#E13121"/>
<rect x="198" y="23" width="1" height="52" fill="#E13121"/>
<rect x="199" y="32" width="1" height="34" fill="#E13121"/>
<rect x="200" y="39" width="1" height="20" fill="#E13121"/>
<rect x="201" y="24" width="1" height="50" fill="#E13121"/>
<rect x="202" y="36" width="1" height="26" fill="#E13121"/>
<rect x="203" y="28" width="1" height="42" fill="#E13121"/>
<rect x="204" y="42" width="1" height="14" fill="#E13121"/>
<rect x="205" y="30" width="1" height="38" fill="#E13121"/>
<rect x="206" y="23" width="1" height="52" fill="#E13121"/>
<rect x="207" y="34" width="1" height="30" fill="#E13121"/>
<rect x="208" y="37" width="1" height="24" fill="#E13121"/>
<rect x="209" y="16" width="1" height="66" fill="#E13121"/>
<rect x="210" y="34" width="1" height="30" fill="#E13121"/>
<rect x="211" y="44" width="1" height="10" fill="#E13121"/>
<rect x="212" y="25" width="1" height="48" fill="#E13121"/>
<rect x="213" y="26" width="1" height="46" fill="#E13121"/>
<rect x="214" y="34" width="1" height="30" fill="#E13121"/>
<rect x="215" y="29" width="1" height="40" fill="#E13121"/>
<rect x="216" y="39" width="1" height="20" fill="#E13121"/>
<rect x="217" y="17" width="1" height="64" fill="#E13121"/>
<rect x="218" y="34" width="1" height="30" fill="#E13121"/>
<rect x="219" y="36" width="1" height="26" fill="#E13121"/>
<rect x="220" y="20" width="1" height="58" fill="#E13121"/>
<rect x="221" y="28" width="1" height="42" fill="#E13121"/>
<rect x="222" y="32" width="1" height="34" fill="#E13121"/>
<rect x="223" y="30" width="1" height="38" fill="#E13121"/>
<rect x="224" y="25" width="1" height="48" fill="#E13121"/>
<rect x="225" y="19" width="1" height="60" fill="#E13121"/>
<rect x="226" y="32" width="1" height="34" fill="#E13121"/>
<rect x="227" y="27" width="1" height="44" fill="#E13121"/>
<rect x="228" y="28" width="1" height="42" fill="#E13121"/>
<rect x="229" y="19" width="1" height="60" fill="#E13121"/>
<rect x="230" y="33" width="1" height="32" fill="#E13121"/>
<rect x="231" y="30" width="1" height="38" fill="#E13121"/>
<rect x="232" y="23" width="1" height="52" fill="#E13121"/>
<rect x="233" y="35" width="1" height="28" fill="#E13121"/>
<rect x="234" y="27" width="1" height="44" fill="#E13121"/>
<rect x="235" y="28" width="1" height="42" fill="#E13121"/>
<rect x="236" y="26" width="1" height="46" fill="#E13121"/>
<rect x="237" y="32" width="1" height="34" fill="#E13121"/>
<rect x="238" y="20" width="1" height="58" fill="#E13121"/>
<rect x="239" y="42" width="1" height="14" fill="#E13121"/>
<rect x="240" y="41" width="1" height="16" fill="#E13121"/>
<rect x="241" y="36" width="1" height="26" fill="#E13121"/>
<rect x="242" y="17" width="1" height="64" fill="#E13121"/>
<rect x="243" y="31" width="1" height="36" fill="#E13121"/>
<rect x="244" y="30" width="1" height="38" fill="#E13121"/>
<rect x="245" y="36" width="1" height="26" fill="#E13121"/>
<rect x="246" y="30" width="1" height="38" fill="#E13121"/>
<rect x="247" y="24" width="1" height="50" fill="#E13121"/>
<rect x="248" y="31" width="1" height="36" fill="#E13121"/>
<rect x="249" y="21" width="1" height="56" fill="#E13121"/>
<rect x="250" y="38" width="1" height="22" fill="#E13121"/>
<rect x="251" y="15" width="1" height="68" fill="#E13121"/>
<rect x="252" y="30" width="1" height="38" fill="#E13121"/>
<rect x="253" y="37" width="1" height="24" fill="#E13121"/>
<rect x="254" y="27" width="1" height="44" fill="#E13121"/>
<rect x="255" y="37" width="1" height="24" fill="#E13121"/>
<rect x="256" y="30" width="1" height="38" fill="#E13121"/>
<rect x="257" y="29" width="1" height="40" fill="#E13121"/>
<rect x="258" y="32" width="1" height="34" fill="#E13121"/>
<rect x="259" y="29" width="1" height="40" fill="#E13121"/>
<rect x="260" y="31" width="1" height="36" fill="#E13121"/>
<rect x="261" y="34" width="1" height="30" fill="#E13121"/>
<rect x="262" y="33" width="1" height="32" fill="#E13121"/>
<rect x="263" y="16" width="1" height="66" fill="#E13121"/>
<rect x="264" y="29" width="1" height="40" fill="#E13121"/>
<rect x="265" y="31" width="1" height="36" fill="#E13121"/>
<rect x="266" y="27" width="1" height="44" fill="#E13121"/>
<rect x="267" y="34" width="1" height="30" fill="#E13121"/>
<rect x="268" y="20" width="1" height="58" fill="#E13121"/>
<rect x="269" y="32" width="1" height="34" fill="#E13121"/>
<rect x="270" y="35" width="1" height="28" fill="#E13121"/>
<rect x="271" y="15" width="1" height="68" fill="#E13121"/>
<rect x="272" y="35" width="1" height="28" fill="#E13121"/>
<rect x="273" y="27" width="1" height="44" fill="#E13121"/>
<rect x="274" y="35" width="1" height="28" fill="#E13121"/>
<rect x="275" y="31" width="1" height="36" fill="#E13121"/>
<rect x="276" y="35" width="1" height="28" fill="#E13121"/>
<rect x="277" y="37" width="1" height="24" fill="#E13121"/>
<rect x="278" y="39" width="1" height="20" fill="#E13121"/>
<rect x="279" y="40" width="1" height="18" fill="#E13121"/>
<rect x="280" y="25" width="1" height="48" fill="#E13121"/>
<rect x="281" y="29" width="1" height="40" fill="#E13121"/>
<rect x="282" y="35" width="1" height="28" fill="#E13121"/>
<rect x="283" y="32" width="1" height="34" fill="#E13121"/>
<rect x="284" y="15" width="1" height="68" fill="#E13121"/>
<rect x="285" y="35" width="1" height="28" fill="#E13121"/>
<rect x="286" y="12" width="1" height="74" fill="#E13121"/>
<rect x="287" y="35" width="1" height="28" fill="#E13121"/>
<rect x="288" y="27" width="1" height="44" fill="#E13121"/>
<rect x="289" y="34" width="1" height="30" fill="#E13121"/>
<rect x="290" y="25" width="1" height="48" fill="#E13121"/>
<rect x="291" y="45" width="1" height="8" fill="#E13121"/>
<rect x="292" y="29" width="1" height="40" fill="#E13121"/>
<rect x="293" y="19" width="1" height="60" fill="#E13121"/>
<rect x="294" y="21" width="1" height="56" fill="#E13121"/>
<rect x="295" y="28" width="1" height="42" fill="#E13121"/>
<rect x="296" y="23" width="1" height="52" fill="#E13121"/>
<rect x="297" y="11" width="1" height="76" fill="#E13121"/>
<rect x="298" y="27" width="1" height="44" fill="#E13121"/>
<rect x="299" y="34" width="1" height="30" fill="#E13121"/>
<rect x="300" y="31" width="1" height="36" fill="#E13121"/>
<rect x="301" y="36" width="1" height="26" fill="#E13121"/>
<rect x="302" y="34" width="1" height="30" fill="#E13121"/>
<rect x="303" y="33" width="1" height="32" fill="#E13121"/>
<rect x="304" y="21" width="1" height="56" fill="#E13121"/>
<rect x="305" y="33" width="1" height="32" fill="#E13121"/>
<rect x="306" y="31" width="1" height="36" fill="#E13121"/>
<rect x="307" y="31" width="1" height="36" fill="#E13121"/>
<rect x="308" y="37" width="1" height="24" fill="#E13121"/>
<rect x="309" y="37" width="1" height="24" fill="#E13121"/>
<rect x="310" y="33" width="1" height="32" fill="#E13121"/>
<rect x="311" y="26" width="1" height="46" fill="#E13121"/>
<rect x="312" y="28" width="1" height="42" fill="#E13121"/>
<rect x="313" y="37" width="1" height="24" fill="#E13121"/>
<rect x="314" y="47" width="1" height="4" fill="#E13121"/>
<rect x="315" y="21" width="1" height="56" fill="#E13121"/>
<rect x="316" y="21" width="1" height="56" fill="#E13121"/>
<rect x="317" y="30" width="1" height="38" fill="#E13121"/>
<rect x="318" y="29" width="1" height="40" fill="#E13121"/>
<rect x="319" y="27" width="1" height="44" fill="#E13121"/>
<rect x="320" y="36" width="1" height="26" fill="#E13121"/>
<rect x="321" y="37" width="1" height="24" fill="#E13121"/>
<rect x="322" y="22" width="1" height="54" fill="#E13121"/>
<rect x="323" y="17" width="1" height="64" fill="#E13121"/>
<rect x="324" y="16" width="1" height="66" fill="#E13121"/>
<rect x="325" y="12" width="1" height="74" fill="#E13121"/>
<rect x="326" y="14" width="1" height="70" fill="#E13121"/>
<rect x="327" y="17" width="1" height="64" fill="#E13121"/>
<rect x="328" y="19" width="1" height="60" fill="#E13121"/>
<rect x="329" y="17" width="1" height="64" fill="#E13121"/>
<rect x="330" y="24" width="1" height="50" fill="#E13121"/>
<rect x="331" y="47" width="1" height="4" fill="#E13121"/>
<rect x="332" y="47" width="1" height="4" fill="#E13121"/>
<rect x="333" y="47" width="1" height="4" fill="#E13121"/>
<rect x="334" y="47" width="1" height="4" fill="#E13121"/>
<rect x="335" y="29" width="1" height="40" fill="#E13121"/>
<rect x="336" y="29" width="1" height="40" fill="#E13121"/>
<rect x="337" y="29" width="1" height="40" fill="#E13121"/>
<rect x="338" y="24" width="1" height="50" fill="#E13121"/>
<rect x="339" y="23" width="1" height="52" fill="#E13121"/>
<rect x="340" y="23" width="1" height="52" fill="#E13121"/>
<rect x="341" y="19" width="1" height="60" fill="#E13121"/>
<rect x="342" y="18" width="1" height="62" fill="#E13121"/>
<rect x="343" y="27" width="1" height="44" fill="#E13121"/>
<rect x="344" y="36" width="1" height="26" fill="#E13121"/>
<rect x="346" y="24" width="1" height="50" fill="#E13121"/>
<rect x="347" y="32" width="1" height="34" fill="#E13121"/>
<rect x="348" y="31" width="1" height="36" fill="#E13121"/>
<rect x="349" y="28" width="1" height="42" fill="#E13121"/>
<rect x="350" y="19" width="1" height="60" fill="#E13121"/>
<rect x="351" y="12" width="1" height="74" fill="#E13121"/>
<rect x="352" y="21" width="1" height="56" fill="#E13121"/>
<rect x="353" y="31" width="1" height="36" fill="#E13121"/>
<rect x="354" y="36" width="1" height="26" fill="#E13121"/>
<rect x="355" y="33" width="1" height="32" fill="#E13121"/>
<rect x="356" y="25" width="1" height="48" fill="#E13121"/>
<rect x="357" y="34" width="1" height="30" fill="#E13121"/>
<rect x="358" y="30" width="1" height="38" fill="#E13121"/>
<rect x="359" y="36" width="1" height="26" fill="#E13121"/>
<rect x="360" y="36" width="1" height="26" fill="#E13121"/>
<rect x="361" y="36" width="1" height="26" fill="#E13121"/>
<rect x="362" y="25" width="1" height="48" fill="#E13121"/>
<rect x="363" y="39" width="1" height="20" fill="#E13121"/>
<rect x="364" y="34" width="1" height="30" fill="#E13121"/>
<rect x="365" y="26" width="1" height="46" fill="#E13121"/>
<rect x="366" y="24" width="1" height="50" fill="#E13121"/>
<rect x="367" y="22" width="1" height="54" fill="#E13121"/>
<rect x="368" y="21" width="1" height="56" fill="#E13121"/>
<rect x="369" y="16" width="1" height="66" fill="#E13121"/>
<rect x="370" y="20" width="1" height="58" fill="#E13121"/>
<rect x="371" y="18" width="1" height="62" fill="#E13121"/>
<rect x="372" y="17" width="1" height="64" fill="#E13121"/>
<rect x="373" y="18" width="1" height="62" fill="#E13121"/>
<rect x="374" y="21" width="1" height="56" fill="#E13121"/>
<rect x="375" y="33" width="1" height="32" fill="#E13121"/>
<rect x="376" y="31" width="1" height="36" fill="#E13121"/>
<rect x="377" y="21" width="1" height="56" fill="#E13121"/>
<rect x="378" y="22" width="1" height="54" fill="#E13121"/>
<rect x="379" y="16" width="1" height="66" fill="#E13121"/>
<rect x="380" y="24" width="1" height="50" fill="#E13121"/>
<rect x="381" y="34" width="1" height="30" fill="#E13121"/>
<rect x="382" y="20" width="1" height="58" fill="#E13121"/>
<rect x="383" y="29" width="1" height="40" fill="#E13121"/>
<rect x="384" y="40" width="1" height="18" fill="#E13121"/>
<rect x="385" y="39" width="1" height="20" fill="#E13121"/>
<rect x="386" y="36" width="1" height="26" fill="#E13121"/>
<rect x="387" y="20" width="1" height="58" fill="#E13121"/>
<rect x="388" y="35" width="1" height="28" fill="#E13121"/>
<rect x="389" y="11" width="1" height="76" fill="#E13121"/>
<rect x="390" y="13" width="1" height="72" fill="#E13121"/>
<rect x="392" y="17" width="1" height="64" fill="#E13121"/>
<rect x="393" y="24" width="1" height="50" fill="#E13121"/>
<rect x="394" y="22" width="1" height="54" fill="#E13121"/>
<rect x="395" y="27" width="1" height="44" fill="#E13121"/>
<rect x="396" y="12" width="1" height="74" fill="#E13121"/>
<rect x="397" y="37" width="1" height="24" fill="#E13121"/>
<rect x="398" y="14" width="1" height="70" fill="#E13121"/>
<rect x="399" y="29" width="1" height="40" fill="#E13121"/>
<rect x="400" y="30" width="1" height="38" fill="#E13121"/>
<rect x="401" y="29" width="1" height="40" fill="#E13121"/>
<rect x="402" y="17" width="1" height="64" fill="#E13121"/>
<rect x="403" y="36" width="1" height="26" fill="#E13121"/>
<rect x="404" y="39" width="1" height="20" fill="#E13121"/>
<rect x="405" y="39" width="1" height="20" fill="#E13121"/>
<rect x="406" y="31" width="1" height="36" fill="#E13121"/>
<rect x="407" y="43" width="1" height="12" fill="#E13121"/>
<rect x="408" y="45" width="1" height="8" fill="#E13121"/>
<rect x="409" y="42" width="1" height="14" fill="#E13121"/>
<rect x="410" y="30" width="1" height="38" fill="#E13121"/>
<rect x="411" y="26" width="1" height="46" fill="#E13121"/>
<rect x="412" y="28" width="1" height="42" fill="#E13121"/>
<rect x="413" y="35" width="1" height="28" fill="#E13121"/>
<rect x="414" y="36" width="1" height="26" fill="#E13121"/>
<rect x="415" y="14" width="1" height="70" fill="#E13121"/>
<rect x="416" y="24" width="1" height="50" fill="#E13121"/>
<rect x="417" y="22" width="1" height="54" fill="#E13121"/>
<rect x="418" y="31" width="1" height="36" fill="#E13121"/>
<rect x="419" y="35" width="1" height="28" fill="#E13121"/>
<rect x="420" y="13" width="1" height="72" fill="#E13121"/>
<rect x="421" y="24" width="1" height="50" fill="#E13121"/>
<rect x="422" y="29" width="1" height="40" fill="#E13121"/>
<rect x="423" y="22" width="1" height="54" fill="#E13121"/>
<rect x="424" y="32" width="1" height="34" fill="#E13121"/>
<rect x="425" y="36" width="1" height="26" fill="#E13121"/>
<rect x="426" y="38" width="1" height="22" fill="#E13121"/>
<rect x="427" y="27" width="1" height="44" fill="#E13121"/>
<rect x="428" y="21" width="1" height="56" fill="#E13121"/>
<rect x="429" y="30" width="1" height="38" fill="#E13121"/>
<rect x="430" y="32" width="1" height="34" fill="#E13121"/>
<rect x="431" y="28" width="1" height="42" fill="#E13121"/>
<rect x="432" y="14" width="1" height="70" fill="#E13121"/>
<rect x="433" y="14" width="1" height="70" fill="#E13121"/>
<rect x="434" y="14" width="1" height="70" fill="#E13121"/>
<rect x="435" y="28" width="1" height="42" fill="#E13121"/>
<rect x="436" y="35" width="1" height="28" fill="#E13121"/>
<rect x="438" y="2" width="1" height="94" fill="#E13121"/>
<rect x="439" y="9" width="1" height="80" fill="#E13121"/>
<rect x="440" y="19" width="1" height="60" fill="#E13121"/>
<rect x="441" y="20" width="1" height="58" fill="#E13121"/>
<rect x="442" y="35" width="1" height="28" fill="#E13121"/>
<rect x="443" y="30" width="1" height="38" fill="#E13121"/>
<rect x="444" y="28" width="1" height="42" fill="#E13121"/>
<rect x="445" y="22" width="1" height="54" fill="#E13121"/>
<rect x="446" y="26" width="1" height="46" fill="#E13121"/>
<rect x="447" y="30" width="1" height="38" fill="#E13121"/>
<rect x="448" y="21" width="1" height="56" fill="#E13121"/>
<rect x="449" y="19" width="1" height="60" fill="#E13121"/>
<rect x="450" y="32" width="1" height="34" fill="#E13121"/>
<rect x="451" y="29" width="1" height="40" fill="#E13121"/>
<rect x="452" y="27" width="1" height="44" fill="#E13121"/>
<rect x="453" y="24" width="1" height="50" fill="#E13121"/>
<rect x="454" y="21" width="1" height="56" fill="#E13121"/>
<rect x="455" y="23" width="1" height="52" fill="#E13121"/>
<rect x="456" y="34" width="1" height="30" fill="#E13121"/>
<rect x="457" y="42" width="1" height="14" fill="#E13121"/>
<rect x="458" y="30" width="1" height="38" fill="#E13121"/>
<rect x="459" y="18" width="1" height="62" fill="#E13121"/>
<rect x="460" y="15" width="1" height="68" fill="#E13121"/>
<rect x="461" y="31" width="1" height="36" fill="#E13121"/>
<rect x="462" y="28" width="1" height="42" fill="#E13121"/>
<rect x="463" y="19" width="1" height="60" fill="#E13121"/>
<rect x="464" y="30" width="1" height="38" fill="#E13121"/>
<rect x="465" y="33" width="1" height="32" fill="#E13121"/>
<rect x="466" y="29" width="1" height="40" fill="#E13121"/>
<rect x="467" y="14" width="1" height="70" fill="#E13121"/>
<rect x="468" y="26" width="1" height="46" fill="#E13121"/>
<rect x="469" y="35" width="1" height="28" fill="#E13121"/>
<rect x="470" y="30" width="1" height="38" fill="#E13121"/>
<rect x="471" y="33" width="1" height="32" fill="#E13121"/>
<rect x="472" y="36" width="1" height="26" fill="#E13121"/>
<rect x="473" y="42" width="1" height="14" fill="#E13121"/>
<rect x="474" y="28" width="1" height="42" fill="#E13121"/>
<rect x="475" y="29" width="1" height="40" fill="#E13121"/>
<rect x="476" y="28" width="1" height="42" fill="#E13121"/>
<rect x="477" y="33" width="1" height="32" fill="#E13121"/>
<rect x="478" y="12" width="1" height="74" fill="#E13121"/>
<rect x="479" y="32" width="1" height="34" fill="#E13121"/>
<rect x="480" y="29" width="1" height="40" fill="#E13121"/>
<rect x="481" y="21" width="1" height="56" fill="#E13121"/>
<rect x="482" y="29" width="1" height="40" fill="#E13121"/>
<rect x="484" y="39" width="1" height="20" fill="#E13121"/>
<rect x="485" y="32" width="1" height="34" fill="#E13121"/>
<rect x="486" y="18" width="1" height="62" fill="#E13121"/>
<rect x="487" y="32" width="1" height="34" fill="#E13121"/>
<rect x="488" y="24" width="1" height="50" fill="#E13121"/>
<rect x="489" y="19" width="1" height="60" fill="#E13121"/>
<rect x="490" y="29" width="1" height="40" fill="#E13121"/>
<rect x="491" y="39" width="1" height="20" fill="#E13121"/>
<rect x="492" y="25" width="1" height="48" fill="#E13121"/>
<rect x="493" y="30" width="1" height="38" fill="#E13121"/>
<rect x="494" y="28" width="1" height="42" fill="#E13121"/>
<rect x="495" y="24" width="1" height="50" fill="#E13121"/>
<rect x="496" y="22" width="1" height="54" fill="#E13121"/>
<rect x="497" y="26" width="1" height="46" fill="#E13121"/>
<rect x="498" y="31" width="1" height="36" fill="#E13121"/>
<rect x="499" y="31" width="1" height="36" fill="#E13121"/>
<rect x="500" y="29" width="1" height="40" fill="#E13121"/>
<rect x="501" y="32" width="1" height="34" fill="#E13121"/>
<rect x="502" y="18" width="1" height="62" fill="#E13121"/>
<rect x="503" y="36" width="1" height="26" fill="#E13121"/>
<rect x="504" y="25" width="1" height="48" fill="#E13121"/>
<rect x="505" y="15" width="1" height="68" fill="#E13121"/>
<rect x="506" y="30" width="1" height="38" fill="#E13121"/>
<rect x="507" y="19" width="1" height="60" fill="#E13121"/>
<rect x="508" y="25" width="1" height="48" fill="#E13121"/>
<rect x="509" y="17" width="1" height="64" fill="#E13121"/>
<rect x="510" y="15" width="1" height="68" fill="#E13121"/>
<rect x="511" y="22" width="1" height="54" fill="#E13121"/>
<rect x="512" y="1" width="1" height="96" fill="#E13121"/>
<rect x="513" y="19" width="1" height="60" fill="#E13121"/>
<rect x="514" y="37" width="1" height="24" fill="#E13121"/>
<rect x="515" y="25" width="1" height="48" fill="#E13121"/>
<rect x="516" y="29" width="1" height="40" fill="#E13121"/>
<rect x="517" y="25" width="1" height="48" fill="#E13121"/>
<rect x="518" y="21" width="1" height="56" fill="#E13121"/>
<rect x="519" y="30" width="1" height="38" fill="#E13121"/>
<rect x="520" y="30" width="1" height="38" fill="#E13121"/>
<rect x="521" y="29" width="1" height="40" fill="#E13121"/>
<rect x="522" y="21" width="1" height="56" fill="#E13121"/>
<rect x="523" y="21" width="1" height="56" fill="#E13121"/>
<rect x="524" y="13" width="1" height="72" fill="#E13121"/>
<rect x="525" y="34" width="1" height="30" fill="#E13121"/>
<rect x="526" y="23" width="1" height="52" fill="#E13121"/>
<rect x="527" y="13" width="1" height="72" fill="#E13121"/>
<rect x="528" y="25" width="1" height="48" fill="#E13121"/>
<rect x="530" y="23" width="1" height="52" fill="#E13121"/>
<rect x="531" y="39" width="1" height="20" fill="#E13121"/>
<rect x="532" y="28" width="1" height="42" fill="#E13121"/>
<rect x="533" y="11" width="1" height="76" fill="#E13121"/>
<rect x="534" y="21" width="1" height="56" fill="#E13121"/>
<rect x="535" y="25" width="1" height="48" fill="#E13121"/>
<rect x="536" y="32" width="1" height="34" fill="#E13121"/>
<rect x="537" y="24" width="1" height="50" fill="#E13121"/>
<rect x="538" y="28" width="1" height="42" fill="#E13121"/>
<rect x="539" y="10" width="1" height="78" fill="#E13121"/>
<rect x="540" y="21" width="1" height="56" fill="#E13121"/>
<rect x="541" y="19" width="1" height="60" fill="#E13121"/>
<rect x="542" y="21" width="1" height="56" fill="#E13121"/>
<rect x="543" y="29" width="1" height="40" fill="#E13121"/>
<rect x="544" y="44" width="1" height="10" fill="#E13121"/>
<rect x="545" y="34" width="1" height="30" fill="#E13121"/>
<rect x="546" y="39" width="1" height="20" fill="#E13121"/>
<rect x="547" y="36" width="1" height="26" fill="#E13121"/>
<rect x="548" y="33" width="1" height="32" fill="#E13121"/>
<rect x="549" y="46" width="1" height="6" fill="#E13121"/>
<rect x="550" y="9" width="1" height="80" fill="#E13121"/>
<rect x="551" y="30" width="1" height="38" fill="#E13121"/>
<rect x="552" y="37" width="1" height="24" fill="#E13121"/>
</g>
</svg>
