<svg width="256" height="379" viewBox="0 0 256 379" fill="none" xmlns="http://www.w3.org/2000/svg">
<path d="M44.3108 281.743L126.066 269.693L76.9432 368.414C76.9432 368.414 61.6748 362.85 43.1133 343.316C24.5517 323.781 44.3108 281.743 44.3108 281.743Z" fill="url(#paint0_linear_65_71)"/>
<path d="M135.19 231.575C135.19 231.575 189.103 156.705 165.028 92.8618C165.028 92.8618 187.731 110.875 219.266 150.792L229.37 203.009L213.078 220.048L135.19 231.55V231.575Z" fill="url(#paint1_linear_65_71)"/>
<path d="M55.6346 267.371C47.3517 281.966 42.387 297.559 44.1084 316.644C46.4536 342.79 76.9404 368.412 76.9404 368.412C31.8338 348.753 -0.000244141 303.696 -0.000244141 251.355C-0.000244141 221.516 11.3263 193.025 27.2683 168.202C43.0606 143.628 64.8904 123.869 79.5101 98.4711C95.9261 69.9552 104.858 34.9027 89.0903 4.09153C88.8408 3.61751 87.294 0 86.8699 0C125.54 28.1168 157.698 69.4063 151.262 119.752C145.124 167.927 103.011 203.504 74.7949 239.828C67.6347 249.034 60.9486 257.991 55.6346 267.371Z" fill="url(#paint2_linear_65_71)"/>
<path d="M86.6675 372.204C94.9004 374.998 103.533 376.969 112.439 378.017C117.379 378.615 122.418 378.915 127.533 378.915C197.962 378.915 255.069 321.808 255.069 251.379C255.069 251.379 257.04 184.143 195.717 122.97C195.717 122.97 217.347 150.089 218.744 187.411C217.846 197.84 217.996 211.486 198.835 235.911C179.675 260.335 86.6675 372.229 86.6675 372.229V372.204Z" fill="url(#paint3_linear_65_71)"/>
<defs>
<linearGradient id="paint0_linear_65_71" x1="66.0504" y1="335.069" x2="126.064" y2="335.069" gradientUnits="userSpaceOnUse">
<stop stop-color="#C82617"/>
<stop offset="0.8125" stop-color="#DB4D40"/>
</linearGradient>
<linearGradient id="paint1_linear_65_71" x1="167.19" y1="184.722" x2="229.367" y2="184.722" gradientUnits="userSpaceOnUse">
<stop offset="0.336538" stop-color="#DB4D40"/>
<stop offset="1" stop-color="#C32618"/>
</linearGradient>
<linearGradient id="paint2_linear_65_71" x1="51.676" y1="325.842" x2="152.082" y2="162.109" gradientUnits="userSpaceOnUse">
<stop stop-color="#DB4D40"/>
<stop offset="1" stop-color="#E32B1A"/>
</linearGradient>
<linearGradient id="paint3_linear_65_71" x1="143.89" y1="292.465" x2="255.072" y2="292.465" gradientUnits="userSpaceOnUse">
<stop offset="0.211538" stop-color="#DB4D40"/>
<stop offset="1" stop-color="#E32B1A"/>
</linearGradient>
</defs>
</svg>
